<?xml version="1.0" encoding="utf-8"?>
<!-- Generator: Adobe Illustrator 21.0.0, SVG Export Plug-In . SVG Version: 6.00 Build 0)  -->
<svg version="1.1" id="Layer_1" xmlns="http://www.w3.org/2000/svg" xmlns:xlink="http://www.w3.org/1999/xlink" x="0px" y="0px"
	 viewBox="0 0 512 512" style="enable-background:new 0 0 512 512;" xml:space="preserve">
<style type="text/css">
	.st0{fill:#71CCE0;}
	.st1{fill:#DFDFDF;}
	.st2{fill:#4A555F;}
	.st3{fill:#FFD452;}
	.st4{fill:#F58E6F;}
	.st5{fill:#FFFFFF;}
	.st6{fill:none;}
</style>
<g>
	<g>
		<g>
			<path class="st3" d="M256,13.731c-54.189,0-98.273,44.085-98.273,98.273c0,54.189,44.084,98.274,98.273,98.274
				c54.188,0,98.273-44.086,98.273-98.274C354.273,57.816,310.188,13.731,256,13.731z"/>
		</g>
	</g>
	<g>
		<g>
			<polygon class="st1" points="321.689,89.516 276.293,82.927 256.007,41.792 235.706,82.927 190.311,89.516 223.151,121.535 
				215.405,166.749 256.007,145.398 296.594,166.749 288.848,121.535 			"/>
		</g>
	</g>
	<g>
		<g>
			<g>
				<path class="st2" d="M328.5,87.31l-50.094-7.279l-22.403-45.393l-22.403,45.393l-50.094,7.279l36.25,35.333l-8.559,49.893
					l44.807-23.556l44.805,23.556l-8.557-49.892L328.5,87.31z M292.39,160.95l-36.388-19.131l-36.39,19.131l6.95-40.519
					l-29.438-28.696l40.683-5.911l18.195-36.866l18.195,36.866l40.683,5.911l-29.438,28.695L292.39,160.95z"/>
			</g>
		</g>
	</g>
	<g>
		<g>
			<path class="st2" d="M395.688,218.981H116.309c-48.235,0-87.476,39.242-87.476,87.477V512h6.337V306.458
				c0-44.74,36.398-81.14,81.139-81.14h279.379c44.741,0,81.141,36.399,81.141,81.14V512h6.337V306.458
				C483.167,258.223,443.924,218.981,395.688,218.981z"/>
		</g>
	</g>
	<g>
		<g>
			<path class="st4" d="M247.438,512L133.706,360.33l35.108-49.219l-45.586-34.432l40.094-43.96h-47.023
				c-40.664,0-73.745,33.081-73.745,73.745V512h59.528v-85.001h6.337V512H247.438z"/>
		</g>
	</g>
	<g>
		<g>
			<path class="st4" d="M395.689,232.719h-47.002l40.094,43.96l-45.608,34.432l35.13,49.219L264.57,512h133.252v-85.001h6.337V512
				h65.274V306.463C469.434,265.799,436.354,232.719,395.689,232.719z"/>
		</g>
	</g>
	<g>
		<g>
			<polygon class="st0" points="199.872,238.276 199.872,278.502 233.761,257.384 233.761,238.276 			"/>
		</g>
	</g>
	<g>
		<g>
			<polygon class="st0" points="276.02,238.276 276.02,257.384 312.127,278.502 312.127,238.276 			"/>
		</g>
	</g>
	<g>
		<g>
			<rect x="246.988" y="238.276" class="st0" width="16.462" height="17.407"/>
		</g>
	</g>
	<g>
		<g>
			<g>
				<path class="st2" d="M196.703,235.108v49.102l40.225-25.068v-24.034H196.703z M230.591,255.625l-27.55,17.169v-31.348h27.55
					V255.625z"/>
			</g>
		</g>
	</g>
	<g>
		<g>
			<g>
				<path class="st2" d="M272.852,235.108v24.093l42.445,24.825v-48.918H272.852z M308.959,272.977l-29.77-17.411v-14.121h29.77
					V272.977z"/>
			</g>
		</g>
	</g>
	<g>
		<g>
			<g>
				<path class="st2" d="M243.82,235.108v23.744h22.797v-23.744H243.82z M260.281,252.515h-10.123v-11.07h10.123V252.515z"/>
			</g>
		</g>
	</g>
	<g>
		<g>
			<g>
				<path class="st2" d="M256,0c-61.76,0-112.004,50.246-112.004,112.005S194.24,224.01,256,224.01s112.004-50.244,112.004-112.004
					S317.76,0,256,0z M256,217.672c-58.265,0-105.667-47.402-105.667-105.667S197.735,6.337,256,6.337
					S361.667,53.74,361.667,112.005S314.265,217.672,256,217.672z"/>
			</g>
		</g>
	</g>
	<g>
		<g>
			<rect x="404.21" y="426.99" class="st2" width="6.337" height="85.01"/>
		</g>
	</g>
	<g>
		<g>
			<rect x="96.373" y="426.99" class="st2" width="6.337" height="85.01"/>
		</g>
	</g>
	<g>
		<g>
			<g>
				<path class="st2" d="M183.616,293.725l-6.044,1.906l1.906,6.044l6.044-1.906L183.616,293.725z M187.426,305.812l-6.044,1.906
					l1.906,6.044l6.044-1.906L187.426,305.812z M198.861,342.078l-6.044,1.904l1.904,6.044l6.044-1.904L198.861,342.078z
					 M195.049,329.989l-6.044,1.906l1.906,6.044l6.044-1.906L195.049,329.989z M191.239,317.902l-6.044,1.904l1.904,6.043
					l6.044-1.904L191.239,317.902z M175.994,269.549l-6.044,1.906l1.906,6.044l6.044-1.906L175.994,269.549z M164.559,233.284
					l-6.044,1.906l1.906,6.044l6.044-1.906L164.559,233.284z M179.804,281.637l-6.044,1.906l1.906,6.043l6.044-1.906
					L179.804,281.637z M160.749,221.197l-6.044,1.906l1.906,6.044l6.044-1.906L160.749,221.197z M168.371,245.373l-6.044,1.906
					l1.906,6.043l6.044-1.906L168.371,245.373z M172.182,257.461l-6.044,1.906l1.906,6.044l6.044-1.906L172.182,257.461z
					 M202.671,354.164l-6.044,1.906l1.906,6.044l6.044-1.906L202.671,354.164z M225.539,426.693l-6.044,1.906l1.906,6.044
					l6.044-1.906L225.539,426.693z M240.784,475.046l-6.044,1.904l1.904,6.043l6.044-1.904L240.784,475.046z M236.972,462.957
					l-6.044,1.906l1.906,6.044l6.044-1.906L236.972,462.957z M244.594,487.133l-6.044,1.906l1.906,6.044l6.044-1.906
					L244.594,487.133z M248.406,499.222l-6.044,1.904l1.904,6.044l6.044-1.904L248.406,499.222z M233.161,450.869l-6.044,1.906
					l1.906,6.044l6.044-1.906L233.161,450.869z M214.104,390.428l-6.044,1.906l1.906,6.044l6.044-1.906L214.104,390.428z
					 M206.484,366.254l-6.044,1.904l1.904,6.043l6.044-1.904L206.484,366.254z M229.349,438.781l-6.044,1.906l1.906,6.043
					l6.044-1.906L229.349,438.781z M210.294,378.341l-6.044,1.906l1.906,6.044l6.044-1.906L210.294,378.341z M221.727,414.605
					l-6.044,1.906l1.906,6.044l6.044-1.906L221.727,414.605z M217.917,402.517l-6.044,1.906l1.906,6.043l6.044-1.906
					L217.917,402.517z"/>
			</g>
		</g>
	</g>
	<g>
		<g>
			<g>
				<path class="st2" d="M304.173,372.297l6.044,1.904l1.904-6.043l-6.044-1.904L304.173,372.297z M288.928,420.649l6.044,1.906
					l1.906-6.044l-6.044-1.906L288.928,420.649z M296.551,396.473l6.044,1.906l1.906-6.044l-6.044-1.906L296.551,396.473z
					 M292.739,408.561l6.044,1.906l1.906-6.043l-6.044-1.906L292.739,408.561z M300.361,384.385l6.044,1.906l1.906-6.044
					l-6.044-1.906L300.361,384.385z M281.306,444.825l6.044,1.906l1.906-6.043l-6.044-1.906L281.306,444.825z M266.061,493.177
					l6.044,1.906l1.906-6.044l-6.044-1.906L266.061,493.177z M262.25,505.266l6.044,1.904l1.904-6.044l-6.044-1.904L262.25,505.266z
					 M277.494,456.913l6.044,1.906l1.906-6.044l-6.044-1.906L277.494,456.913z M273.684,469.001l6.044,1.906l1.906-6.044
					l-6.044-1.906L273.684,469.001z M269.873,481.09l6.044,1.904l1.904-6.043l-6.044-1.904L269.873,481.09z M285.116,432.737
					l6.044,1.906l1.906-6.044l-6.044-1.906L285.116,432.737z M307.983,360.209l6.044,1.906l1.906-6.044l-6.044-1.906
					L307.983,360.209z M338.474,263.505l6.044,1.906l1.906-6.044l-6.044-1.906L338.474,263.505z M334.661,275.593l6.044,1.906
					l1.906-6.044l-6.044-1.906L334.661,275.593z M330.851,287.681l6.044,1.906l1.906-6.043l-6.044-1.906L330.851,287.681z
					 M351.812,221.197l-1.906,6.044l6.044,1.906l1.906-6.044L351.812,221.197z M346.096,239.329l6.044,1.906l1.906-6.044
					l-6.044-1.906L346.096,239.329z M342.284,251.417l6.044,1.906l1.906-6.043l-6.044-1.906L342.284,251.417z M315.606,336.033
					l6.044,1.906l1.906-6.044l-6.044-1.906L315.606,336.033z M311.796,348.122l6.044,1.904l1.904-6.044l-6.044-1.904
					L311.796,348.122z M327.039,299.769l6.044,1.906l1.906-6.044l-6.044-1.906L327.039,299.769z M323.229,311.857l6.044,1.906
					l1.906-6.044l-6.044-1.906L323.229,311.857z M319.418,323.946l6.044,1.904l1.904-6.043l-6.044-1.904L319.418,323.946z"/>
			</g>
		</g>
	</g>
</g>
</svg>
