<?xml version="1.0" encoding="utf-8"?>
<!-- Generator: Adobe Illustrator 24.3.0, SVG Export Plug-In . SVG Version: 6.00 Build 0)  -->
<svg version="1.1" id="Layer_1" xmlns="http://www.w3.org/2000/svg" xmlns:xlink="http://www.w3.org/1999/xlink" x="0px" y="0px"
	 viewBox="0 0 300 300" enable-background="new 0 0 300 300" xml:space="preserve">
<g>
	<g>
		<g>
			<ellipse fill="#E5E5E4" cx="150" cy="150.001" rx="120.991" ry="47.262"/>
		</g>
		<g>
			<path fill="#EFEFEF" d="M47.157,150.001c0-11.963,49.283-44.075,111.813-47.02c-2.965-0.145-5.949-0.242-8.971-0.242
				c-66.823,0-120.991,34.72-120.991,47.262c0,15.437,54.168,47.262,120.991,47.262c3.019,0,5.999-0.092,8.962-0.222
				C96.437,194.33,47.157,164.723,47.157,150.001z"/>
		</g>
		<g>
			<path fill="#FE6F80" d="M46.401,51.694H34.302c-0.366,0-0.721,0.037-1.066,0.108c-0.275,0.056-0.538,0.149-0.795,0.247
				c-0.065,0.023-0.136,0.034-0.198,0.06c-1.249,0.529-2.248,1.526-2.791,2.767c-0.006,0.018-0.018,0.034-0.027,0.051
				c-0.269,0.634-0.417,1.329-0.417,2.061v12.099c0,2.926,2.372,5.295,5.293,5.295s5.293-2.369,5.293-5.295v-6.806h6.806
				c2.924,0,5.293-2.371,5.293-5.293C51.695,54.064,49.326,51.694,46.401,51.694z"/>
		</g>
		<g>
			<path fill="#FE6F80" d="M270.991,69.088V56.989c0-0.366-0.035-0.721-0.107-1.067c-0.056-0.275-0.151-0.537-0.248-0.794
				c-0.024-0.065-0.032-0.136-0.059-0.198c-0.529-1.25-1.527-2.248-2.768-2.791c-0.018-0.006-0.032-0.018-0.05-0.027
				c-0.635-0.269-1.329-0.417-2.062-0.417h-12.099c-2.924,0-5.293,2.372-5.293,5.293c0,2.921,2.369,5.293,5.293,5.293h6.806v6.806
				c0,2.924,2.372,5.293,5.293,5.293C268.622,74.381,270.991,72.012,270.991,69.088z"/>
		</g>
		<g>
			<path fill="#FE6F80" d="M253.599,248.306h12.099c0.366,0,0.721-0.035,1.066-0.107c0.275-0.059,0.538-0.148,0.795-0.248
				c0.065-0.024,0.136-0.035,0.198-0.059c1.249-0.532,2.248-1.524,2.791-2.765c0.006-0.018,0.018-0.035,0.027-0.053
				c0.269-0.632,0.417-1.329,0.417-2.062v-12.099c0-2.924-2.372-5.293-5.293-5.293s-5.293,2.369-5.293,5.293v6.806h-6.806
				c-2.924,0-5.293,2.369-5.293,5.293C248.305,245.937,250.674,248.306,253.599,248.306z"/>
		</g>
		<g>
			<path fill="#FE6F80" d="M29.009,230.914v12.099c0,0.366,0.035,0.721,0.106,1.063c0.056,0.278,0.151,0.538,0.248,0.798
				c0.024,0.065,0.032,0.136,0.059,0.195c0.529,1.252,1.527,2.251,2.768,2.794c0.017,0.006,0.032,0.018,0.05,0.024
				c0.635,0.272,1.329,0.42,2.062,0.42h12.099c2.924,0,5.293-2.375,5.293-5.293c0-2.924-2.369-5.293-5.293-5.293h-6.806v-6.806
				c0-2.924-2.372-5.293-5.293-5.293C31.378,225.62,29.009,227.989,29.009,230.914z"/>
		</g>
		<g>
			<path fill="#F4F4F4" d="M197.259,149.998c0,26.1-21.159,47.256-47.259,47.256s-47.259-21.156-47.259-47.256
				c0-26.104,21.159-47.259,47.259-47.259S197.259,123.894,197.259,149.998z"/>
		</g>
		<g>
			<path fill="#F9F9F9" d="M119.285,149.998c0-23.277,16.837-42.574,38.985-46.491c-2.688-0.476-5.444-0.768-8.271-0.768
				c-26.101,0-47.259,21.156-47.259,47.259c0,26.1,21.159,47.256,47.259,47.256c2.827,0,5.583-0.292,8.271-0.768
				C136.123,192.569,119.285,173.271,119.285,149.998z"/>
		</g>
		<g>
			<path fill="#FE6F80" d="M163.691,141.21v-8.752c0-7.55-6.141-13.694-13.694-13.694c-7.55,0-13.694,6.144-13.694,13.694v8.752
				h-2.851v33.089h33.092V141.21H163.691z M144.987,141.21v-8.752c0-2.762,2.248-5.01,5.01-5.01c2.765,0,5.013,2.248,5.013,5.01
				v8.752H144.987z"/>
		</g>
		<g>
			<path fill="#F4F4F4" d="M154.265,157.814c0,2.357-1.911,4.265-4.269,4.265c-2.357,0-4.265-1.908-4.265-4.265
				c0-2.357,1.908-4.268,4.265-4.268C152.354,153.546,154.265,155.457,154.265,157.814z"/>
		</g>
	</g>
	<g>
		<g>
			<path fill="#161616" d="M150,201.8c-66.858,0-125.528-32.286-125.528-51.799c0-11.878,24.136-25.362,31.536-29.214
				c2.215-1.149,4.962-0.292,6.12,1.932c1.155,2.221,0.292,4.963-1.932,6.12c-20.157,10.489-26.588,19.186-26.65,21.165
				c0,10.324,48.32,42.722,116.454,42.722c66.911,0,116.454-33.795,116.454-42.725c-1.397-8.179-50.836-42.725-116.454-42.725
				c-29.864,0-54.874,7.075-70.595,13.012c-2.342,0.877-4.963-0.295-5.849-2.641c-0.886-2.345,0.298-4.962,2.641-5.849
				c16.429-6.203,42.571-13.597,73.803-13.597c64.838,0,125.528,35.618,125.528,51.799C275.528,169.485,214.729,201.8,150,201.8z"/>
		</g>
		<g>
			<path fill="#161616" d="M46.401,51.694H34.302c-0.366,0-0.721,0.037-1.066,0.108c-0.275,0.056-0.538,0.149-0.795,0.247
				c-0.065,0.023-0.136,0.034-0.198,0.06c-1.249,0.529-2.248,1.526-2.791,2.767c-0.006,0.018-0.018,0.034-0.027,0.051
				c-0.269,0.634-0.417,1.329-0.417,2.061v12.099c0,2.926,2.372,5.295,5.293,5.295s5.293-2.369,5.293-5.295v-6.806h6.806
				c2.924,0,5.293-2.371,5.293-5.293C51.695,54.064,49.326,51.694,46.401,51.694z"/>
		</g>
		<g>
			<path fill="#161616" d="M270.991,69.088V56.989c0-0.366-0.035-0.721-0.107-1.067c-0.056-0.275-0.151-0.537-0.248-0.794
				c-0.024-0.065-0.032-0.136-0.059-0.198c-0.529-1.25-1.527-2.248-2.768-2.791c-0.018-0.006-0.032-0.018-0.05-0.027
				c-0.635-0.269-1.329-0.417-2.062-0.417h-12.099c-2.924,0-5.293,2.372-5.293,5.293c0,2.921,2.369,5.293,5.293,5.293h6.806v6.806
				c0,2.924,2.372,5.293,5.293,5.293C268.622,74.381,270.991,72.012,270.991,69.088z"/>
		</g>
		<g>
			<path fill="#161616" d="M253.599,248.306h12.099c0.366,0,0.721-0.035,1.066-0.107c0.275-0.059,0.538-0.148,0.795-0.248
				c0.065-0.024,0.136-0.035,0.198-0.059c1.249-0.532,2.248-1.524,2.791-2.765c0.006-0.018,0.018-0.035,0.027-0.053
				c0.269-0.632,0.417-1.329,0.417-2.062v-12.099c0-2.924-2.372-5.293-5.293-5.293s-5.293,2.369-5.293,5.293v6.806h-6.806
				c-2.924,0-5.293,2.369-5.293,5.293C248.305,245.937,250.674,248.306,253.599,248.306z"/>
		</g>
		<g>
			<path fill="#161616" d="M29.009,230.914v12.099c0,0.366,0.035,0.721,0.106,1.063c0.056,0.278,0.151,0.538,0.248,0.798
				c0.024,0.065,0.032,0.136,0.059,0.195c0.529,1.252,1.527,2.251,2.768,2.794c0.017,0.006,0.032,0.018,0.05,0.024
				c0.635,0.272,1.329,0.42,2.062,0.42h12.099c2.924,0,5.293-2.375,5.293-5.293c0-2.924-2.369-5.293-5.293-5.293h-6.806v-6.806
				c0-2.924-2.372-5.293-5.293-5.293C31.378,225.62,29.009,227.989,29.009,230.914z"/>
		</g>
		<g>
			<path fill="#161616" d="M150,201.791c-28.561,0-51.796-23.235-51.796-51.793c0-28.561,23.235-51.796,51.796-51.796
				c24.172,0,44.896,16.444,50.396,39.99c0.57,2.44-0.948,4.88-3.388,5.45c-2.443,0.564-4.88-0.948-5.45-3.388
				c-4.534-19.416-21.625-32.977-41.558-32.977c-23.557,0-42.722,19.165-42.722,42.722c0,23.554,19.165,42.719,42.722,42.719
				c19.933,0,37.024-13.561,41.558-32.974c0.57-2.44,3.007-3.958,5.45-3.388c2.443,0.57,3.958,3.01,3.388,5.45
				C194.896,185.35,174.172,201.791,150,201.791z"/>
		</g>
		<g>
			<path fill="#161616" d="M166.545,178.837h-33.092c-2.505,0-4.537-2.032-4.537-4.537V141.21c0-2.505,2.032-4.537,4.537-4.537
				h33.092c2.505,0,4.537,2.032,4.537,4.537v33.089C171.082,176.804,169.05,178.837,166.545,178.837z M137.99,169.762h24.018
				v-24.015H137.99V169.762z"/>
		</g>
		<g>
			<g>
				<path fill="#161616" d="M163.691,141.21h-8.682v-8.752c0-2.762-2.248-5.01-5.013-5.01c-2.762,0-5.01,2.248-5.01,5.01v8.752
					h-8.684v-8.752c0-7.55,6.144-13.694,13.694-13.694c7.553,0,13.694,6.144,13.694,13.694V141.21z"/>
			</g>
		</g>
		<g>
			<path fill="#161616" d="M154.265,157.814c0,2.357-1.911,4.265-4.269,4.265c-2.357,0-4.265-1.908-4.265-4.265
				c0-2.357,1.908-4.268,4.265-4.268C152.354,153.546,154.265,155.457,154.265,157.814z"/>
		</g>
	</g>
</g>
</svg>
