<?xml version="1.0" encoding="utf-8"?>
<!-- Generator: Adobe Illustrator 19.2.0, SVG Export Plug-In . SVG Version: 6.00 Build 0)  -->
<svg version="1.1" id="Layer_1" xmlns="http://www.w3.org/2000/svg" xmlns:xlink="http://www.w3.org/1999/xlink" x="0px" y="0px"
	 viewBox="0 0 500 500" style="enable-background:new 0 0 500 500;" xml:space="preserve">
<style type="text/css">
	.st0{fill:#ECF4F7;}
	.st1{fill:#1C1D21;}
	.st2{fill:#83E1E5;}
	.st3{fill:#AAB1BA;}
	.st4{fill:none;stroke:#1C1D21;stroke-width:10;stroke-linecap:round;stroke-linejoin:round;stroke-miterlimit:10;}
	.st5{fill:#FDDF7F;}
	.st6{fill:#FFFFFF;}
</style>
<g>
	<g>
		<g>
			<path class="st2" d="M40,336v104c0,11,9,20,20,20h380c11,0,20-9,20-20V336H40z"/>
		</g>
	</g>
	<g>
		<g>
			<path class="st2" d="M460,128V62.4c0-11-9-20-20-20H60c-11,0-20,9-20,20V128H460z"/>
		</g>
	</g>
	<g>
		<g>
			<path class="st1" d="M465,500H35c-19.3,0-35-15.7-35-35V35C0,15.7,15.7,0,35,0h430c19.3,0,35,15.7,35,35v430
				C500,484.3,484.3,500,465,500z M35,10c-13.8,0-25,11.2-25,25v430c0,13.8,11.2,25,25,25h430c13.8,0,25-11.2,25-25V35
				c0-13.8-11.2-25-25-25H35z"/>
		</g>
	</g>
	<g>
		<g>
			<g>
				<path class="st1" d="M40,97.7c-2.8,0-5-2.2-5-5V62.4c0-13.8,11.2-25,25-25h4.3c2.8,0,5,2.2,5,5c0,2.8-2.2,5-5,5H60
					c-8.3,0-15,6.7-15,15v30.3C45,95.4,42.8,97.7,40,97.7z"/>
			</g>
		</g>
		<g>
			<g>
				<path class="st1" d="M104,47.4H89c-2.8,0-5-2.2-5-5c0-2.8,2.2-5,5-5h15c2.8,0,5,2.2,5,5C109,45.1,106.8,47.4,104,47.4z"/>
			</g>
		</g>
	</g>
	<g>
		<g>
			<g>
				<path class="st1" d="M440,465h-4.3c-2.8,0-5-2.2-5-5s2.2-5,5-5h4.3c8.3,0,15-6.7,15-15v-30.3c0-2.8,2.2-5,5-5s5,2.2,5,5V440
					C465,453.8,453.8,465,440,465z"/>
			</g>
		</g>
		<g>
			<g>
				<path class="st1" d="M411,465h-15c-2.8,0-5-2.2-5-5s2.2-5,5-5h15c2.8,0,5,2.2,5,5S413.8,465,411,465z"/>
			</g>
		</g>
	</g>
	<g>
		<g>
			<g>
				<path class="st6" d="M128.3,359.3H79.7c-5.5,0-10,4.5-10,10v33.3c0,5.5,4.5,10,10,10h48.7c5.5,0,10-4.5,10-10v-33.3
					C138.3,363.8,133.9,359.3,128.3,359.3z"/>
			</g>
		</g>
		<g>
			<g>
				<path class="st6" d="M225.7,359.3H177c-5.5,0-10,4.5-10,10v33.3c0,5.5,4.5,10,10,10h48.7c5.5,0,10-4.5,10-10v-33.3
					C235.7,363.8,231.2,359.3,225.7,359.3z"/>
			</g>
		</g>
		<g>
			<g>
				<path class="st6" d="M323,359.3h-48.7c-5.5,0-10,4.5-10,10v33.3c0,5.5,4.5,10,10,10H323c5.5,0,10-4.5,10-10v-33.3
					C333,363.8,328.5,359.3,323,359.3z"/>
			</g>
		</g>
		<g>
			<g>
				<path class="st6" d="M420.3,359.3h-48.7c-5.5,0-10,4.5-10,10v33.3c0,5.5,4.5,10,10,10h48.7c5.5,0,10-4.5,10-10v-33.3
					C430.3,363.8,425.9,359.3,420.3,359.3z"/>
			</g>
		</g>
	</g>
	<g>
		<g>
			<g>
				<path class="st5" d="M309.4,384.1H190.6c-16.6,0-30-13.4-30-30V232.1c0-16.6,13.4-30,30-30h118.7c16.6,0,30,13.4,30,30v122.1
					C339.4,370.7,325.9,384.1,309.4,384.1z"/>
			</g>
		</g>
		<g>
			<g>
				<path class="st1" d="M309.4,389.1H190.6c-19.3,0-35-15.7-35-35V232.1c0-19.3,15.7-35,35-35h118.7c19.3,0,35,15.7,35,35v122.1
					C344.4,373.4,328.7,389.1,309.4,389.1z M190.6,207.1c-13.8,0-25,11.2-25,25v122.1c0,13.8,11.2,25,25,25h118.7
					c13.8,0,25-11.2,25-25V232.1c0-13.8-11.2-25-25-25H190.6z"/>
			</g>
		</g>
		<g>
			<g>
				<g>
					<path class="st3" d="M300.8,201.3v-40.2c0-24.9-20.3-45.2-45.2-45.2h-11.2c-24.9,0-45.2,20.3-45.2,45.2v40.2H300.8z
						 M230.9,161.1c0-7.5,6.1-13.6,13.6-13.6h11.2c7.5,0,13.6,6.1,13.6,13.6v40.2h-38.3V161.1z"/>
				</g>
			</g>
		</g>
		<g>
			<g>
				<g>
					<path class="st1" d="M300.8,206.3H199.2c-2.8,0-5-2.2-5-5v-40.2c0-27.7,22.5-50.2,50.2-50.2h11.2c27.7,0,50.2,22.5,50.2,50.2
						v40.2C305.8,204.1,303.5,206.3,300.8,206.3z M274.1,196.3h21.6v-35.2c0-22.2-18-40.2-40.2-40.2h-11.2
						c-22.2,0-40.2,18-40.2,40.2v35.2h21.6v-35.2c0-10.2,8.3-18.6,18.6-18.6h11.2c10.2,0,18.6,8.3,18.6,18.6V196.3z M235.9,196.3
						h28.3v-35.2c0-4.7-3.8-8.6-8.6-8.6h-11.2c-4.7,0-8.6,3.8-8.6,8.6V196.3z"/>
				</g>
			</g>
		</g>
		<g>
			<g>
				<path class="st2" d="M277.2,265.7c0-15.6-13.1-28.2-29-27.2c-13.5,0.8-24.5,11.8-25.4,25.3c-0.5,8.1,2.5,15.5,7.6,20.9
					c6,6.1,9,14.5,9,23v29.4c0,5.8,4.7,10.5,10.5,10.5l0,0c5.8,0,10.5-4.7,10.5-10.5v-29.4c0-8.7,3.5-17,9.4-23.4
					C274.4,279.4,277.2,272.9,277.2,265.7z"/>
			</g>
		</g>
		<g>
			<g>
				<path class="st1" d="M250,352.7c-8.5,0-15.5-6.9-15.5-15.5v-29.4c0-7.6-2.7-14.5-7.6-19.5c-6.4-6.5-9.7-15.5-9.1-24.7
					c1.1-16.1,14-28.9,30.1-29.9c9-0.6,17.6,2.5,24.1,8.7c6.5,6.1,10.2,14.6,10.2,23.5c0,8.2-3.1,16-8.7,22
					c-5.2,5.6-8.1,12.7-8.1,20v29.4C265.5,345.7,258.5,352.7,250,352.7z M250,243.5c-0.5,0-1,0-1.4,0c-11.1,0.7-20,9.6-20.7,20.6
					c-0.4,6.4,1.8,12.5,6.2,17c6.7,6.9,10.4,16.3,10.4,26.5v29.4c0,3,2.5,5.5,5.5,5.5s5.5-2.5,5.5-5.5v-29.4
					c0-9.9,3.8-19.4,10.8-26.8c3.8-4.1,6-9.5,6-15.1c0-6.2-2.5-11.9-7-16.2C261,245.6,255.7,243.5,250,243.5z"/>
			</g>
		</g>
	</g>
</g>
</svg>
