<?xml version="1.0" encoding="utf-8"?>
<!-- Generator: Adobe Illustrator 21.0.0, SVG Export Plug-In . SVG Version: 6.00 Build 0)  -->
<svg version="1.1" id="Layer_1" xmlns="http://www.w3.org/2000/svg" xmlns:xlink="http://www.w3.org/1999/xlink" x="0px" y="0px"
	 viewBox="0 0 64 64" style="enable-background:new 0 0 64 64;" xml:space="preserve">
<style type="text/css">
	.st0{fill:#455A64;stroke:#37474F;stroke-linecap:round;stroke-linejoin:round;stroke-miterlimit:10;}
	.st1{fill:#78909C;stroke:#37474F;stroke-linecap:round;stroke-linejoin:round;stroke-miterlimit:10;}
	.st2{fill:#ECEFF1;stroke:#37474F;stroke-linecap:round;stroke-linejoin:round;stroke-miterlimit:10;}
	.st3{fill:none;stroke:#FFFFFF;stroke-linecap:round;stroke-linejoin:round;stroke-miterlimit:10;}
	.st4{fill:#FFCA28;stroke:#37474F;stroke-linecap:round;stroke-linejoin:round;stroke-miterlimit:10;}
	.st5{fill:none;stroke:#37474F;stroke-linecap:round;stroke-linejoin:round;stroke-miterlimit:10;}
	.st6{fill:#B0BEC5;}
	.st7{fill:#37474F;}
	.st8{fill:#455A64;}
	.st9{fill:#9CCC65;stroke:#37474F;stroke-linecap:round;stroke-linejoin:round;stroke-miterlimit:10;}
	.st10{fill:none;stroke:#C5E1A5;stroke-linecap:round;stroke-linejoin:round;stroke-miterlimit:10;}
	.st11{fill:#26C6DA;stroke:#37474F;stroke-linecap:round;stroke-linejoin:round;stroke-miterlimit:10;}
	.st12{fill:#EF5350;stroke:#37474F;stroke-linecap:round;stroke-linejoin:round;stroke-miterlimit:10;}
	.st13{fill:#B0BEC5;stroke:#37474F;stroke-linecap:round;stroke-linejoin:round;stroke-miterlimit:10;}
	.st14{fill:none;stroke:#EF9A9A;stroke-linecap:round;stroke-linejoin:round;stroke-miterlimit:10;}
	.st15{fill:none;stroke:#FFE082;stroke-linecap:round;stroke-linejoin:round;stroke-miterlimit:10;}
	.st16{fill:#D32F2F;stroke:#37474F;stroke-linecap:round;stroke-linejoin:round;stroke-miterlimit:10;}
	.st17{fill:#0097A7;stroke:#37474F;stroke-linecap:round;stroke-linejoin:round;stroke-miterlimit:10;}
	.st18{fill:#689F38;stroke:#37474F;stroke-linecap:round;stroke-linejoin:round;stroke-miterlimit:10;}
	.st19{fill:#FFA000;stroke:#37474F;stroke-linecap:round;stroke-linejoin:round;stroke-miterlimit:10;}
	.st20{fill:#FFA000;}
	.st21{fill:#FF6F00;}
	.st22{fill:#D32F2F;}
	.st23{fill:#0097A7;}
	.st24{fill:none;stroke:#80DEEA;stroke-linecap:round;stroke-linejoin:round;stroke-miterlimit:10;}
	.st25{fill:#689F38;}
	.st26{fill:none;stroke:#B0BEC5;stroke-linecap:round;stroke-linejoin:round;stroke-miterlimit:10;}
	.st27{fill:#78909C;stroke:#37474F;stroke-miterlimit:10;}
	.st28{fill:#78909C;}
	.st29{fill:#B71C1C;}
	.st30{fill:#F57F17;}
	.st31{fill:#006064;}
	.st32{fill:#26A69A;stroke:#37474F;stroke-linecap:round;stroke-linejoin:round;stroke-miterlimit:10;}
</style>
<g>
	<path class="st0" d="M43,63.5H18c-2.2,0-4-1.8-4-4V20c0-2.2,1.8-4,4-4h25c2.2,0,4,1.8,4,4v39.5C47,61.7,45.2,63.5,43,63.5z"/>
	<path class="st1" d="M43,59.5H18c-2.2,0-4-1.8-4-4V16c0-2.2,1.8-4,4-4h25c2.2,0,4,1.8,4,4v39.5C47,57.7,45.2,59.5,43,59.5z"/>
	<rect x="14" y="17.8" class="st2" width="33" height="36"/>
	<path class="st3" d="M16,23.8v-4h4 M45,19.8"/>
	<line class="st5" x1="27.5" y1="56.8" x2="33.5" y2="56.8"/>
	<line class="st5" x1="33" y1="32.8" x2="42" y2="32.8"/>
	<line class="st5" x1="33" y1="44.8" x2="42" y2="44.8"/>
	<g>
		<path class="st12" d="M25.5,34.2h-4c-1.4,0-2.5-1.1-2.5-2.5v-4c0-1.4,1.1-2.5,2.5-2.5h4c1.4,0,2.5,1.1,2.5,2.5v4
			C28,33.1,26.8,34.2,25.5,34.2z"/>
		<polyline class="st5" points="21.4,28.6 23.5,30.8 29,25.2 		"/>
	</g>
	<g>
		<path class="st5" d="M25.5,46.2h-4c-1.4,0-2.5-1.1-2.5-2.5v-4c0-1.4,1.1-2.5,2.5-2.5h4c1.4,0,2.5,1.1,2.5,2.5v4
			C28,45.1,26.8,46.2,25.5,46.2z"/>
	</g>
	<path class="st6" d="M21.8,53.2L23,52c0.8-0.8,1.1-2,0.7-3c-0.4-1.1-1.3-1.8-2.4-2l-3.2-0.5l-1.4-3c-0.4-0.9-1.3-1.5-2.2-1.7v11.5
		H21.8z"/>
	<path class="st8" d="M20.6,54.5l0.3-0.3h-6.4v1.2c0,1.9,1.6,3.5,3.5,3.5h3.2c0.1-0.3,0.1-0.7,0-1L20.6,54.5z"/>
	<path class="st8" d="M46.5,17.2V16c0-1.9-1.6-3.5-3.5-3.5H28v2v2.7H46.5z"/>
	<path class="st6" d="M28,18.5c0,3.9,3.1,7,7,7h2v3.6c0,1.7,1.3,3,3,3c0.8,0,1.5-0.3,2.1-0.9l4.4-4.4v-8.6H28V18.5z"/>
	<path class="st17" d="M30,9.5v9c0,2.8,2.2,5,5,5h3c0.6,0,1,0.4,1,1v4.6c0,0.9,1.1,1.3,1.7,0.7l4.8-4.8c0.9-0.9,2.2-1.5,3.5-1.5H53
		c2.8,0,5-2.2,5-5v-9c0-2.8-2.2-5-5-5H35C32.2,4.5,30,6.7,30,9.5z"/>
	<path class="st11" d="M30,5.5v9c0,2.8,2.2,5,5,5h3c0.6,0,1,0.4,1,1v4.6c0,0.9,1.1,1.3,1.7,0.7l4.8-4.8c0.9-0.9,2.2-1.5,3.5-1.5H53
		c2.8,0,5-2.2,5-5v-9c0-2.8-2.2-5-5-5H35C32.2,0.5,30,2.7,30,5.5z"/>
	<path class="st24" d="M32,9.5v-4c0-1.7,1.3-3,3-3h4"/>
	<line class="st5" x1="36" y1="8.5" x2="52" y2="8.5"/>
	<line class="st5" x1="36" y1="12.5" x2="44" y2="12.5"/>
	<path class="st4" d="M14.9,44.3l1.6,3.5c0.1,0.3,0.4,0.5,0.8,0.6L21,49c0.8,0.1,1.1,1.1,0.6,1.7l-2.8,2.9c-0.2,0.2-0.3,0.5-0.3,0.9
		l0.6,4c0.1,0.8-0.7,1.4-1.5,1l-3.3-1.8c-0.3-0.2-0.7-0.2-1,0l-3.3,1.8c-0.7,0.4-1.6-0.2-1.5-1l0.6-4c0.1-0.3,0-0.6-0.3-0.9
		l-2.8-2.9c-0.6-0.6-0.2-1.6,0.6-1.7l3.8-0.6c0.3-0.1,0.6-0.3,0.8-0.6l1.6-3.5C13.4,43.5,14.5,43.5,14.9,44.3z"/>
	<path class="st15" d="M9.1,50.6l1.8-0.3c1-0.2,1.8-0.8,2.3-1.7l0.7-1.6"/>
</g>
</svg>
