<svg id="artwork" xmlns="http://www.w3.org/2000/svg" viewBox="0 0 512 512"><title>Data_Security</title><g id="Data_Security"><rect x="92.37" y="134.45" width="327.26" height="175.6" style="fill:#fff"/><polygon points="231.18 204 231.18 124.43 5.82 124.43 5.82 183.56 206.81 183.56 231.18 204" style="fill:#c6d1de"/><rect x="360.19" y="123.39" width="85.52" height="65.88" style="fill:#ef835e"/><rect x="425.63" y="123.39" width="20.08" height="65.88" style="fill:#e56e4e"/><rect x="92.21" y="308" width="327.26" height="46.31" style="fill:#59aee4"/><polygon points="258.03 176.1 258.03 96.53 32.67 96.53 32.67 155.66 233.66 155.66 258.03 176.1" style="fill:#f7c648"/><rect x="124.51" y="409.53" width="262.66" height="20.86" style="fill:#59aee4"/><rect x="92.54" y="309.22" width="330.46" height="22.56" style="fill:#548fbf"/><rect x="198.64" y="355.17" width="114.4" height="53.5" style="fill:#fff"/><rect x="200.05" y="355.17" width="113" height="26.75" style="fill:#c6d0dc"/><rect x="299.52" y="209.96" width="92.66" height="65.59" style="fill:#c6d0dc"/><path d="M413.63,304.05H98.37V162.33H232.13l32.55,27.3V140.45h75.67v-12H264.68V91.2H27.32v71.13H86.37V361.17H193.19v41.5H120v32.86H392V402.67H318.82v-41.5H425.63V206.87h-12ZM39.32,150.33V103.2H252.68v60.71l-16.19-13.58ZM380,414.67v8.86H132v-8.86Zm-174.81-12v-41.5H306.82v41.5Zm208.44-53.5H98.37V316.05H413.63Z"/><path d="M432.45,117.19v-16a27.35,27.35,0,0,0-54.7,0v16H354.19v77.87h97.52V117.19Zm-42.7-16a15.35,15.35,0,0,1,30.7,0v16h-30.7Zm50,81.88H366.19V129.19h73.52Z"/><rect x="114.42" y="178.86" width="69.82" height="12"/><rect x="114.42" y="197.38" width="69.82" height="12"/><rect x="211.56" y="251.03" width="69.82" height="12"/><rect x="211.56" y="269.55" width="69.82" height="12"/><rect x="114.42" y="215.9" width="31.41" height="12"/><rect x="63.16" y="119.67" width="14.78" height="14.78"/><rect x="212.76" y="120.18" width="14.78" height="14.78"/><rect x="137.96" y="119.67" width="14.78" height="14.78"/><rect x="100.56" y="120.18" width="14.78" height="14.78"/><rect x="175.36" y="119.67" width="14.78" height="14.78"/><path d="M293.52,282.1H398.18V205H293.52Zm23.63-12,29.1-19.43,29.1,19.43Zm69-7.2-29.13-19.45L386.18,224ZM375.06,217l-28.81,19.24L317.44,217Zm-69.54,6.47,29.93,20-29.93,20Z"/><rect x="237.74" y="326.61" width="36.52" height="12"/></g></svg>