<?xml version="1.0" encoding="utf-8"?>
<!-- Generator: Adobe Illustrator 22.0.0, SVG Export Plug-In . SVG Version: 6.00 Build 0)  -->
<svg version="1.1" xmlns="http://www.w3.org/2000/svg" xmlns:xlink="http://www.w3.org/1999/xlink" x="0px" y="0px"
	 viewBox="0 0 256 256" style="enable-background:new 0 0 256 256;" xml:space="preserve">
<style type="text/css">
	.st0{display:none;}
	.st1{display:inline;}
	.st2{fill:none;stroke:#6B1D1D;stroke-width:0.5;stroke-miterlimit:10;}
	.st3{fill:#3A312A;}
	.st4{fill:#87796F;}
	.st5{fill:#D5DE58;}
	.st6{fill:#695B51;}
	.st7{fill:#FCE8CB;}
	.st8{fill:#F16C7A;}
	.st9{fill:#8AC6DD;}
	.st10{fill:#DECAAD;}
	.st11{fill:#D6DF58;}
	.st12{fill-rule:evenodd;clip-rule:evenodd;fill:#FCE8CB;}
	.st13{fill:#F5978A;}
	.st14{fill:#D7E057;}
	.st15{fill-rule:evenodd;clip-rule:evenodd;fill:#87796F;}
	.st16{fill:#6CA8BF;}
	.st17{fill:#B9C239;}
	.st18{fill:#D34E5C;}
	.st19{fill:#FAE6CA;}
	.st20{fill:#F8E4C8;}
	.st21{fill:#8AC5DC;}
	.st22{fill:#EF6D7A;}
	.st23{fill:#EB6E7A;}
	.st24{fill:#89C4DB;}
	.st25{fill-rule:evenodd;clip-rule:evenodd;fill:#F16C7A;}
	.st26{fill:#F7E3C7;}
	.st27{fill:#F6E2C6;}
	.st28{fill:#ED6E7A;}
	.st29{fill:#8AC3DA;}
	.st30{fill:#D5DC57;}
	.st31{fill-rule:evenodd;clip-rule:evenodd;fill:#D7E057;}
	.st32{fill-rule:evenodd;clip-rule:evenodd;fill:#F8E4C8;}
	.st33{fill:#D4DB56;}
	.st34{fill:#F59689;}
	.st35{fill:#DDC9AC;}
	.st36{fill:#D24E5C;}
	.st37{fill:#6A5C52;}
	.st38{fill:#6CA6BE;}
	.st39{fill:#B8C136;}
	.st40{fill-rule:evenodd;clip-rule:evenodd;fill:#FAE6CA;}
</style>
<g id="Layer_2" class="st0">
	<g class="st1">
		<g>
			<line class="st2" x1="0" y1="4.829" x2="256" y2="4.829"/>
			<line class="st2" x1="0" y1="16.56" x2="256" y2="16.56"/>
			<line class="st2" x1="0" y1="28.29" x2="256" y2="28.29"/>
			<line class="st2" x1="0" y1="40.021" x2="256" y2="40.021"/>
			<line class="st2" x1="0" y1="51.751" x2="256" y2="51.751"/>
			<line class="st2" x1="0" y1="63.482" x2="256" y2="63.482"/>
			<line class="st2" x1="0" y1="75.213" x2="256" y2="75.213"/>
			<line class="st2" x1="0" y1="86.943" x2="256" y2="86.943"/>
			<line class="st2" x1="0" y1="98.674" x2="256" y2="98.674"/>
			<line class="st2" x1="0" y1="110.404" x2="256" y2="110.404"/>
			<line class="st2" x1="0" y1="122.135" x2="256" y2="122.135"/>
			<line class="st2" x1="0" y1="133.865" x2="256" y2="133.865"/>
			<line class="st2" x1="0" y1="145.596" x2="256" y2="145.596"/>
			<line class="st2" x1="0" y1="157.326" x2="256" y2="157.326"/>
			<line class="st2" x1="0" y1="169.057" x2="256" y2="169.057"/>
			<line class="st2" x1="0" y1="180.788" x2="256" y2="180.788"/>
			<line class="st2" x1="0" y1="192.518" x2="256" y2="192.518"/>
			<line class="st2" x1="0" y1="204.249" x2="256" y2="204.249"/>
			<line class="st2" x1="0" y1="215.979" x2="256" y2="215.979"/>
			<line class="st2" x1="0" y1="227.71" x2="256" y2="227.71"/>
			<line class="st2" x1="0" y1="239.44" x2="256" y2="239.44"/>
			<line class="st2" x1="0" y1="251.171" x2="256" y2="251.171"/>
		</g>
		<g>
			<line class="st2" x1="251.171" y1="0" x2="251.171" y2="256"/>
			<line class="st2" x1="239.44" y1="0" x2="239.44" y2="256"/>
			<line class="st2" x1="227.71" y1="0" x2="227.71" y2="256"/>
			<line class="st2" x1="215.979" y1="0" x2="215.979" y2="256"/>
			<line class="st2" x1="204.249" y1="0" x2="204.249" y2="256"/>
			<line class="st2" x1="192.518" y1="0" x2="192.518" y2="256"/>
			<line class="st2" x1="180.788" y1="0" x2="180.788" y2="256"/>
			<line class="st2" x1="169.057" y1="0" x2="169.057" y2="256"/>
			<line class="st2" x1="157.326" y1="0" x2="157.326" y2="256"/>
			<line class="st2" x1="145.596" y1="0" x2="145.596" y2="256"/>
			<line class="st2" x1="133.865" y1="0" x2="133.865" y2="256"/>
			<line class="st2" x1="122.135" y1="0" x2="122.135" y2="256"/>
			<line class="st2" x1="110.404" y1="0" x2="110.404" y2="256"/>
			<line class="st2" x1="98.674" y1="0" x2="98.674" y2="256"/>
			<line class="st2" x1="86.943" y1="0" x2="86.943" y2="256"/>
			<line class="st2" x1="75.212" y1="0" x2="75.212" y2="256"/>
			<line class="st2" x1="63.482" y1="0" x2="63.482" y2="256"/>
			<line class="st2" x1="51.751" y1="0" x2="51.751" y2="256"/>
			<line class="st2" x1="40.021" y1="0" x2="40.021" y2="256"/>
			<line class="st2" x1="28.29" y1="0" x2="28.29" y2="256"/>
			<line class="st2" x1="16.56" y1="0" x2="16.56" y2="256"/>
			<line class="st2" x1="4.829" y1="0" x2="4.829" y2="256"/>
		</g>
	</g>
</g>
<g id="Layer_1">
	<g>
		<path class="st11" d="M48.656,26.075c0,0,3.408,12.659,13.222,13.246c0,0-13.1,4.525-13.321,14.202
			c0,0-2.578-13.572-12.925-14.059C35.632,39.465,47.683,37.639,48.656,26.075z"/>
		<path class="st3" d="M48.556,55.022c-0.713,0-1.335-0.506-1.473-1.218c-0.023-0.124-2.494-12.417-11.522-12.842
			c-0.77-0.036-1.388-0.65-1.428-1.421c-0.04-0.77,0.511-1.444,1.273-1.561c0.441-0.068,10.895-1.817,11.754-12.032
			c0.062-0.726,0.635-1.301,1.359-1.367c0.731-0.06,1.394,0.399,1.584,1.102c0.031,0.116,3.259,11.626,11.863,12.141
			c0.714,0.042,1.297,0.583,1.396,1.292c0.098,0.708-0.318,1.388-0.994,1.622c-0.121,0.042-12.118,4.311-12.312,12.819
			c-0.017,0.767-0.611,1.396-1.375,1.46C48.64,55.021,48.598,55.022,48.556,55.022z M40.815,39.293
			c3.878,1.97,6.229,5.746,7.586,8.877c2.026-4.021,5.942-6.787,8.949-8.427c-4.134-1.843-6.783-5.651-8.334-8.723
			C47.224,35.381,43.746,37.889,40.815,39.293z"/>
		<path class="st11" d="M26.958,43.056c0,0,2.411,8.954,9.352,9.369c0,0-9.266,3.201-9.422,10.045c0,0-1.824-9.6-9.142-9.944
			C17.745,52.526,26.269,51.235,26.958,43.056z"/>
		<path class="st3" d="M26.887,63.97c-0.714,0-1.337-0.507-1.473-1.22c-0.016-0.082-1.704-8.441-7.739-8.726
			c-0.771-0.036-1.388-0.65-1.428-1.421c-0.04-0.77,0.511-1.444,1.273-1.561c0.296-0.047,7.363-1.243,7.942-8.113
			c0.062-0.726,0.636-1.303,1.361-1.368c0.719-0.062,1.392,0.399,1.582,1.102l0,0c0.021,0.079,2.226,7.92,7.993,8.265
			c0.714,0.042,1.299,0.584,1.396,1.293c0.097,0.709-0.32,1.388-0.996,1.622c-0.081,0.028-8.282,2.953-8.412,8.661
			c-0.018,0.768-0.611,1.398-1.376,1.461C26.97,63.968,26.928,63.97,26.887,63.97z M22.367,52.442
			c2.107,1.333,3.523,3.394,4.447,5.28c1.376-2.232,3.515-3.872,5.365-4.973c-2.287-1.269-3.885-3.35-4.941-5.224
			C26.064,49.812,24.223,51.401,22.367,52.442z"/>
		<path class="st11" d="M26.958,16.398c0,0,2.411,8.954,9.352,9.37c0,0-9.266,3.201-9.422,10.045c0,0-1.824-9.6-9.142-9.944
			C17.745,25.869,26.269,24.577,26.958,16.398z"/>
		<path class="st3" d="M26.887,37.312c-0.714,0-1.337-0.507-1.473-1.22c-0.016-0.082-1.704-8.442-7.739-8.727
			c-0.771-0.036-1.388-0.65-1.428-1.421c-0.04-0.769,0.511-1.444,1.273-1.56c0.296-0.047,7.363-1.242,7.942-8.113
			c0.062-0.726,0.636-1.303,1.361-1.368c0.719-0.06,1.392,0.399,1.582,1.102l0,0c0.021,0.079,2.226,7.92,7.993,8.266
			c0.714,0.043,1.299,0.584,1.396,1.293c0.097,0.709-0.32,1.388-0.996,1.622c-0.081,0.028-8.282,2.953-8.412,8.661
			c-0.018,0.768-0.611,1.397-1.376,1.461C26.97,37.311,26.928,37.312,26.887,37.312z M22.367,25.785
			c2.107,1.333,3.523,3.395,4.447,5.28c1.377-2.232,3.516-3.872,5.365-4.973c-2.287-1.27-3.885-3.351-4.941-5.225
			C26.064,23.155,24.223,24.744,22.367,25.785z"/>
		<circle class="st19" cx="68.594" cy="127.855" r="51.339"/>
		<path class="st3" d="M68.594,180.694c-29.136,0-52.839-23.703-52.839-52.839c0-29.136,23.703-52.839,52.839-52.839
			c29.136,0,52.839,23.703,52.839,52.839C121.433,156.991,97.729,180.694,68.594,180.694z M68.594,78.017
			c-27.481,0-49.839,22.357-49.839,49.839c0,27.481,22.357,49.839,49.839,49.839c27.481,0,49.839-22.357,49.839-49.839
			C118.433,100.374,96.075,78.017,68.594,78.017z"/>
		<path class="st3" d="M68.594,98.35c-0.828,0-1.5-0.672-1.5-1.5v-4.432c0-0.828,0.672-1.5,1.5-1.5c0.828,0,1.5,0.672,1.5,1.5v4.432
			C70.094,97.678,69.422,98.35,68.594,98.35z"/>
		<path class="st3" d="M87.151,104.511c-0.312,0-0.627-0.097-0.896-0.298c-0.664-0.495-0.801-1.436-0.306-2.099l2.65-3.553
			c0.495-0.667,1.437-0.802,2.099-0.306c0.664,0.495,0.801,1.436,0.306,2.099l-2.65,3.553
			C88.06,104.303,87.608,104.511,87.151,104.511z"/>
		<path class="st3" d="M98.342,120.547c-0.646,0-1.243-0.421-1.437-1.072c-0.236-0.795,0.216-1.63,1.01-1.865l4.249-1.263
			c0.794-0.235,1.63,0.216,1.865,1.01c0.236,0.795-0.216,1.63-1.01,1.865l-4.249,1.263
			C98.628,120.527,98.483,120.547,98.342,120.547z"/>
		<path class="st3" d="M101.884,141.62c-0.172,0-0.347-0.029-0.518-0.092l-4.16-1.529c-0.777-0.286-1.176-1.148-0.891-1.926
			c0.286-0.777,1.147-1.178,1.926-0.891l4.16,1.529c0.777,0.286,1.176,1.148,0.891,1.926
			C103.068,141.244,102.494,141.62,101.884,141.62z"/>
		<path class="st3" d="M50.036,104.511c-0.457,0-0.909-0.208-1.203-0.603l-2.65-3.553c-0.495-0.663-0.358-1.604,0.306-2.099
			c0.662-0.495,1.604-0.359,2.099,0.306l2.65,3.553c0.495,0.663,0.358,1.603-0.306,2.099
			C50.663,104.414,50.349,104.511,50.036,104.511z"/>
		<path class="st3" d="M38.845,120.547c-0.142,0-0.286-0.02-0.429-0.062l-4.249-1.263c-0.794-0.235-1.246-1.07-1.01-1.865
			c0.235-0.794,1.071-1.246,1.865-1.01l4.249,1.263c0.794,0.235,1.246,1.07,1.01,1.865
			C40.088,120.126,39.491,120.547,38.845,120.547z"/>
		<path class="st3" d="M35.304,141.62c-0.61,0-1.185-0.376-1.408-0.982c-0.285-0.777,0.113-1.64,0.891-1.926l4.16-1.529
			c0.778-0.283,1.64,0.114,1.926,0.891c0.285,0.777-0.113,1.64-0.891,1.926l-4.16,1.529C35.65,141.591,35.476,141.62,35.304,141.62z
			"/>
		<path class="st11" d="M89.345,127.178c0,5.269-1.957,10.061-5.193,13.724c-3.049,3.45-4.993,7.702-5.796,12.218H58.825
			c-0.803-4.516-2.735-8.768-5.795-12.231c-3.224-3.65-5.193-8.455-5.193-13.711c0-10.913,8.743-20.146,19.632-20.723
			C79.435,105.827,89.345,115.349,89.345,127.178z"/>
		<path class="st3" d="M78.356,154.619H58.825c-0.728,0-1.35-0.521-1.477-1.237c-0.778-4.377-2.66-8.353-5.443-11.499
			c-3.592-4.068-5.569-9.29-5.569-14.705c0-11.637,9.444-21.605,21.053-22.221c6.175-0.328,12.044,1.836,16.518,6.08
			c4.475,4.246,6.938,9.979,6.938,16.141c0,5.426-1.978,10.652-5.568,14.717c-2.785,3.151-4.667,7.123-5.443,11.487
			C79.706,154.098,79.084,154.619,78.356,154.619z M60.054,151.619h17.074c0.991-4.422,3.018-8.449,5.9-11.711
			c3.105-3.516,4.816-8.037,4.816-12.731c0-5.331-2.132-10.29-6.004-13.964c-3.87-3.673-8.943-5.552-14.295-5.261
			c-10.04,0.532-18.21,9.156-18.21,19.225c0,4.684,1.711,9.2,4.817,12.718C57.035,143.154,59.06,147.186,60.054,151.619z"/>
		<path class="st4" d="M58.145,153.124h20.897c1.68,0,3.042,1.362,3.042,3.042v4.085c0,1.68-1.362,3.042-3.042,3.042H58.145
			c-1.68,0-3.042-1.362-3.042-3.042v-4.085C55.103,154.486,56.465,153.124,58.145,153.124z"/>
		<path class="st3" d="M79.042,164.793H58.144c-2.505,0-4.542-2.037-4.542-4.542v-4.085c0-2.505,2.037-4.542,4.542-4.542h20.898
			c2.505,0,4.542,2.037,4.542,4.542v4.085C83.584,162.756,81.547,164.793,79.042,164.793z M58.144,154.624
			c-0.851,0-1.542,0.691-1.542,1.542v4.085c0,0.851,0.691,1.542,1.542,1.542h20.898c0.851,0,1.542-0.691,1.542-1.542v-4.085
			c0-0.851-0.691-1.542-1.542-1.542H58.144z"/>
		<circle class="st9" cx="187.406" cy="127.855" r="51.339"/>
		<path class="st3" d="M187.406,180.694c-29.136,0-52.839-23.703-52.839-52.839c0-29.136,23.703-52.839,52.839-52.839
			c29.136,0,52.839,23.703,52.839,52.839C240.245,156.991,216.542,180.694,187.406,180.694z M187.406,78.017
			c-27.481,0-49.839,22.357-49.839,49.839c0,27.481,22.357,49.839,49.839,49.839c27.481,0,49.839-22.357,49.839-49.839
			C237.245,100.374,214.888,78.017,187.406,78.017z"/>
		<path class="st3" d="M187.406,98.35c-0.828,0-1.5-0.672-1.5-1.5v-4.432c0-0.828,0.672-1.5,1.5-1.5c0.828,0,1.5,0.672,1.5,1.5
			v4.432C188.906,97.678,188.234,98.35,187.406,98.35z"/>
		<path class="st3" d="M205.965,104.511c-0.312,0-0.627-0.097-0.895-0.298c-0.664-0.495-0.801-1.436-0.306-2.099l2.65-3.553
			c0.495-0.667,1.437-0.802,2.099-0.306c0.664,0.495,0.801,1.436,0.306,2.099l-2.65,3.553
			C206.874,104.303,206.422,104.511,205.965,104.511z"/>
		<path class="st3" d="M217.155,120.547c-0.646,0-1.243-0.421-1.437-1.072c-0.236-0.795,0.216-1.63,1.01-1.865l4.249-1.263
			c0.794-0.235,1.63,0.216,1.865,1.01c0.236,0.795-0.216,1.63-1.01,1.865l-4.249,1.263
			C217.441,120.527,217.297,120.547,217.155,120.547z"/>
		<path class="st3" d="M220.696,141.62c-0.172,0-0.347-0.029-0.518-0.092l-4.16-1.529c-0.777-0.286-1.176-1.148-0.891-1.926
			c0.286-0.777,1.146-1.178,1.926-0.891l4.16,1.529c0.777,0.286,1.176,1.148,0.891,1.926
			C221.881,141.244,221.307,141.62,220.696,141.62z"/>
		<path class="st3" d="M168.849,104.511c-0.457,0-0.909-0.208-1.203-0.603l-2.65-3.553c-0.495-0.663-0.358-1.604,0.306-2.099
			c0.661-0.495,1.605-0.359,2.099,0.306l2.65,3.553c0.495,0.663,0.358,1.603-0.306,2.099
			C169.476,104.414,169.161,104.511,168.849,104.511z"/>
		<path class="st3" d="M157.658,120.547c-0.142,0-0.286-0.02-0.429-0.062l-4.249-1.263c-0.794-0.235-1.246-1.07-1.01-1.865
			c0.235-0.794,1.071-1.246,1.865-1.01l4.249,1.263c0.794,0.235,1.246,1.07,1.01,1.865
			C158.901,120.126,158.305,120.547,157.658,120.547z"/>
		<path class="st3" d="M154.116,141.62c-0.61,0-1.185-0.376-1.408-0.982c-0.285-0.777,0.113-1.64,0.891-1.926l4.16-1.529
			c0.78-0.283,1.64,0.114,1.926,0.891c0.285,0.777-0.113,1.64-0.891,1.926l-4.16,1.529
			C154.463,141.591,154.288,141.62,154.116,141.62z"/>
		<path class="st11" d="M208.158,127.178c0,5.269-1.957,10.061-5.193,13.724c-3.049,3.45-4.993,7.702-5.796,12.218h-19.531
			c-0.803-4.516-2.735-8.768-5.796-12.231c-3.224-3.65-5.193-8.455-5.193-13.711c0-10.913,8.743-20.146,19.632-20.723
			C198.248,105.827,208.158,115.349,208.158,127.178z"/>
		<path class="st3" d="M197.169,154.619h-19.53c-0.727,0-1.35-0.521-1.477-1.237c-0.779-4.376-2.661-8.353-5.443-11.5
			c-3.592-4.067-5.569-9.289-5.569-14.704c0-11.637,9.444-21.605,21.053-22.221c6.171-0.33,12.044,1.835,16.518,6.08
			c4.475,4.246,6.939,9.979,6.939,16.141c0,5.426-1.978,10.651-5.569,14.717c-2.784,3.151-4.666,7.123-5.443,11.487
			C198.519,154.098,197.895,154.619,197.169,154.619z M178.867,151.619h17.073c0.992-4.422,3.018-8.449,5.9-11.711
			c3.106-3.517,4.817-8.037,4.817-12.731c0-5.331-2.132-10.29-6.004-13.964c-3.87-3.673-8.945-5.552-14.295-5.261
			c-10.04,0.532-18.21,9.156-18.21,19.225c0,4.684,1.711,9.2,4.817,12.718C175.848,143.154,177.873,147.186,178.867,151.619z"/>
		<path class="st4" d="M176.958,153.124h20.897c1.68,0,3.042,1.362,3.042,3.042v4.085c0,1.68-1.362,3.042-3.042,3.042h-20.897
			c-1.68,0-3.042-1.362-3.042-3.042v-4.085C173.916,154.486,175.278,153.124,176.958,153.124z"/>
		<path class="st3" d="M197.855,164.793h-20.898c-2.505,0-4.542-2.037-4.542-4.542v-4.085c0-2.505,2.037-4.542,4.542-4.542h20.898
			c2.504,0,4.541,2.037,4.541,4.542v4.085C202.396,162.756,200.359,164.793,197.855,164.793z M176.958,154.624
			c-0.851,0-1.542,0.691-1.542,1.542v4.085c0,0.851,0.691,1.542,1.542,1.542h20.898c0.85,0,1.541-0.691,1.541-1.542v-4.085
			c0-0.851-0.691-1.542-1.541-1.542H176.958z"/>
		<path class="st8" d="M132.221,23.84c18.348,2.055,34.482,13.099,43.056,29.331l-7.148-2.509c-2.032-0.713-4.257,0.356-4.969,2.387
			c-0.15,0.427-0.221,0.863-0.221,1.291c0,1.609,1.004,3.115,2.608,3.678l15.551,5.458c0.976,0.343,2.047,0.284,2.979-0.164
			c0.932-0.448,1.647-1.247,1.99-2.223l5.458-15.551c0.713-2.031-0.356-4.255-2.387-4.969c-2.032-0.713-4.257,0.356-4.969,2.387
			l-2.183,6.221c-10.924-20.369-32.328-33.486-55.984-33.486c-27.074,0-51.202,17.181-60.041,42.752
			c-0.146,0.422-0.215,0.851-0.215,1.273c0,1.616,1.012,3.126,2.626,3.684c2.034,0.704,4.253-0.376,4.957-2.411
			c7.068-20.451,25.29-34.775,46.452-37.146L132.221,23.84z"/>
		<path class="st3" d="M182.394,65.199c-0.603,0-1.207-0.103-1.793-0.309l-15.551-5.458c-2.159-0.757-3.61-2.804-3.61-5.093
			c0-0.61,0.103-1.212,0.306-1.788c0.477-1.359,1.455-2.453,2.755-3.077c1.3-0.625,2.766-0.706,4.125-0.228l3.335,1.17
			c-8.735-13.956-23.384-23.235-39.906-25.087c-0.823-0.092-1.416-0.834-1.323-1.657c0.091-0.823,0.833-1.422,1.657-1.323
			c18.839,2.11,35.368,13.37,44.215,30.121c0.288,0.545,0.213,1.212-0.189,1.68c-0.403,0.468-1.05,0.643-1.634,0.436l-7.147-2.509
			c-0.605-0.211-1.256-0.176-1.833,0.102c-0.577,0.277-1.012,0.763-1.223,1.366c-0.091,0.258-0.137,0.524-0.137,0.795
			c0,1.017,0.645,1.926,1.604,2.262l15.552,5.459c0.604,0.212,1.256,0.177,1.831-0.101c0.578-0.278,1.013-0.764,1.226-1.368
			l5.458-15.552c0.438-1.247-0.222-2.618-1.469-3.057c-1.248-0.439-2.619,0.221-3.058,1.47l-2.184,6.221
			c-0.196,0.561-0.706,0.952-1.299,0.998c-0.603,0.055-1.157-0.263-1.439-0.786c-10.814-20.167-31.759-32.695-54.661-32.695
			c-26.436,0-49.994,16.774-58.623,41.742c-0.089,0.254-0.133,0.517-0.133,0.783c0,1.021,0.649,1.932,1.616,2.266
			c0.606,0.209,1.257,0.171,1.831-0.109c0.576-0.28,1.009-0.768,1.218-1.374c7.165-20.729,25.889-35.702,47.703-38.146
			c0.821-0.103,1.565,0.5,1.657,1.323c0.093,0.823-0.5,1.565-1.323,1.657c-20.671,2.316-38.413,16.504-45.201,36.146
			c-0.471,1.362-1.444,2.461-2.741,3.092c-1.298,0.632-2.761,0.718-4.124,0.247c-2.175-0.752-3.636-2.802-3.636-5.102
			c0-0.603,0.101-1.196,0.298-1.766c9.046-26.173,33.744-43.76,61.458-43.76c22.894,0,43.924,11.943,55.658,31.385l1.094-3.116
			c0.985-2.808,4.074-4.29,6.881-3.306c2.81,0.986,4.292,4.073,3.306,6.881l-5.458,15.552c-0.477,1.359-1.456,2.452-2.755,3.077
			C183.986,65.02,183.192,65.199,182.394,65.199z"/>
		<path class="st8" d="M124.093,231.99c-17.857-2.389-33.49-13.279-41.879-29.161l7.148,2.509c2.032,0.713,4.257-0.356,4.969-2.387
			c0.15-0.427,0.221-0.862,0.221-1.29c0-1.609-1.004-3.115-2.608-3.678l-15.551-5.458c-0.976-0.343-2.047-0.284-2.979,0.164
			c-0.932,0.448-1.648,1.247-1.99,2.223l-5.458,15.551c-0.713,2.031,0.356,4.255,2.387,4.969c2.032,0.713,4.257-0.356,4.969-2.387
			l2.183-6.221c10.924,20.369,32.329,33.486,55.984,33.486c27.074,0,51.202-17.181,60.04-42.752
			c0.146-0.422,0.215-0.851,0.215-1.273c0-1.616-1.013-3.126-2.626-3.684c-2.034-0.703-4.253,0.376-4.957,2.411
			c-7.159,20.712-25.758,35.136-47.265,37.227L124.093,231.99z"/>
		<path class="st3" d="M131.49,241.81c-22.894,0-43.924-11.943-55.659-31.385l-1.094,3.116c-0.984,2.809-4.068,4.295-6.881,3.306
			c-1.36-0.478-2.453-1.457-3.078-2.756c-0.624-1.301-0.705-2.766-0.227-4.125l5.458-15.552c0.476-1.358,1.454-2.452,2.754-3.077
			c1.301-0.625,2.764-0.707,4.127-0.227l15.551,5.458c2.159,0.757,3.61,2.804,3.61,5.093c0,0.606-0.103,1.207-0.305,1.786
			c-0.986,2.81-4.074,4.296-6.882,3.307l-3.332-1.169c8.508,13.564,22.728,22.775,38.76,24.92c0.82,0.109,1.397,0.864,1.287,1.686
			c-0.109,0.82-0.868,1.407-1.686,1.287c-18.318-2.45-34.396-13.645-43.007-29.947c-0.288-0.545-0.213-1.212,0.189-1.68
			c0.404-0.468,1.049-0.643,1.634-0.436l7.147,2.509c1.247,0.437,2.619-0.222,3.058-1.469c0.09-0.258,0.136-0.525,0.136-0.794
			c0-1.017-0.645-1.926-1.604-2.263l-15.552-5.458c-0.603-0.211-1.256-0.175-1.833,0.1c-0.577,0.278-1.012,0.764-1.223,1.367
			l-5.459,15.553c-0.212,0.604-0.177,1.254,0.101,1.831c0.278,0.578,0.764,1.013,1.368,1.226c0.604,0.211,1.254,0.176,1.832-0.102
			c0.577-0.277,1.012-0.764,1.225-1.368l2.184-6.221c0.196-0.561,0.706-0.952,1.299-0.998c0.604-0.047,1.157,0.264,1.439,0.786
			c10.815,20.167,31.761,32.695,54.662,32.695c26.435,0,49.993-16.774,58.622-41.742c0.089-0.254,0.133-0.517,0.133-0.783
			c0-1.021-0.649-1.933-1.617-2.268c-0.604-0.207-1.254-0.17-1.829,0.111c-0.576,0.28-1.009,0.768-1.218,1.374
			c-7.281,21.063-26.333,36.069-48.538,38.229c-0.829,0.072-1.559-0.522-1.639-1.348c-0.08-0.825,0.523-1.559,1.348-1.639
			c21.041-2.046,39.095-16.265,45.993-36.224c0.471-1.362,1.444-2.461,2.74-3.092c1.295-0.63,2.758-0.719,4.124-0.248
			c2.175,0.753,3.636,2.804,3.636,5.103c0,0.603-0.101,1.196-0.298,1.766C183.901,224.223,159.203,241.81,131.49,241.81z"/>
		<path class="st10" d="M68.595,78.015c-2.55,0-5.05,0.19-7.5,0.57c20.14,3.05,36.36,18.2,41,37.78l0.07-0.02
			c0.79-0.24,1.63,0.22,1.86,1.01c0.24,0.8-0.21,1.63-1.01,1.87l-0.32,0.09c0.49,2.77,0.74,5.63,0.74,8.54
			c0,3.71-0.41,7.32-1.18,10.8l0.15,0.06c0.77,0.28,1.17,1.14,0.89,1.92c-0.23,0.61-0.8,0.98-1.41,0.98c-0.12,0-0.24-0.01-0.36-0.05
			c-5.31,18.5-21.06,32.63-40.43,35.56c2.45,0.38,4.95,0.57,7.5,0.57c27.48,0,49.84-22.36,49.84-49.84S96.075,78.015,68.595,78.015z
			"/>
		<path class="st16" d="M187.405,78.015c-2.55,0-5.05,0.19-7.5,0.57c20.14,3.05,36.36,18.2,41,37.78l0.07-0.02
			c0.8-0.24,1.63,0.22,1.87,1.01c0.23,0.8-0.22,1.63-1.01,1.87l-0.33,0.1c0.49,2.771,0.74,5.62,0.74,8.53
			c0,3.71-0.41,7.32-1.18,10.8l0.15,0.06c0.78,0.28,1.17,1.14,0.89,1.92c-0.22,0.61-0.8,0.98-1.41,0.98c-0.12,0-0.24-0.01-0.36-0.05
			c-5.31,18.5-21.06,32.63-40.43,35.56c2.45,0.38,4.95,0.57,7.5,0.57c27.48,0,49.84-22.36,49.84-49.84
			S214.885,78.015,187.405,78.015z"/>
	</g>
</g>
</svg>
